<?xml version="1.0" encoding="UTF-8"?>
<svg xmlns="http://www.w3.org/2000/svg" style="display:none">
  <symbol id="icon-menu" viewBox="0 0 24 24">
    <path d="M3 6h18M3 12h18M3 18h18" stroke="currentColor" stroke-width="2" stroke-linecap="round" stroke-linejoin="round" fill="none"/>
  </symbol>
  <symbol id="icon-search" viewBox="0 0 24 24">
    <path d="M21 21l-4.35-4.35" stroke="currentColor" stroke-width="2" stroke-linecap="round" stroke-linejoin="round" fill="none"/>
    <circle cx="11" cy="11" r="6" stroke="currentColor" stroke-width="2" fill="none"/>
  </symbol>
  <symbol id="icon-camera" viewBox="0 0 24 24">
    <path d="M4 7h3l2-3h6l2 3h3v11a2 2 0 0 1-2 2H6a2 2 0 0 1-2-2V7z" stroke="currentColor" stroke-width="1.2" fill="none" stroke-linejoin="round"/>
    <circle cx="12" cy="13" r="3" stroke="currentColor" stroke-width="1.2" fill="none"/>
  </symbol>
  <symbol id="icon-plus" viewBox="0 0 24 24">
    <path d="M12 5v14M5 12h14" stroke="currentColor" stroke-width="2" stroke-linecap="round" stroke-linejoin="round" fill="none"/>
  </symbol>
  <symbol id="icon-upload" viewBox="0 0 24 24">
    <path d="M12 3v12" stroke="currentColor" stroke-width="2" stroke-linecap="round" stroke-linejoin="round" fill="none"/>
    <path d="M8 7l4-4 4 4" stroke="currentColor" stroke-width="2" stroke-linecap="round" stroke-linejoin="round" fill="none"/>
    <path d="M21 21H3" stroke="currentColor" stroke-width="2" stroke-linecap="round" fill="none"/>
  </symbol>
</svg>
